# xmcd
#
# Track frame offsets: 
#        150
#        15713
#        25302
#        40337
#        53593
#        67742
#        81486
#        92325
#        104287
#        117118
#        128549
#        138680
#        150220
#        160267
#        178984
#        192783
#        213807
#        226143
#        240757
#        253455
#
# Disc length: 3592 seconds
#
# Revision: 3
# Processed by: cddbd v1.5.2PL0 Copyright (c) Steve Scherf et al.
# Submitted via: ExactAudioCopyFreeDBPlugin 1.0
#
DISCID=f80e0614
DTITLE=Various Artist - Muziek voor volwassenen
DYEAR=2009
DGENRE=Rhythm and Blues
TTITLE0=Percy Sledge - Bring It On Home to Me
TTITLE1=Sandy Posey - Born a Woman
TTITLE2=Kenny Rogers - Just Dropped In
TTITLE3=The Drifters - On Broadway
TTITLE4=The Everly Brothers - Kentucky
TTITLE5=Fortunes - Freedom Come, Freedom Go
TTITLE6=Little Richard - Tutti Frutti
TTITLE7=Johnny Cash - I Walk the Line
TTITLE8=Lynn Anderson - Rose Garden
TTITLE9=Ray Charles - Ray's Blues
TTITLE10=Wilson Pickett - Give Your Lovin' Right Now
TTITLE11=Gerry and The Pacemakers - Don't Let the Sun Catch You Crying
TTITLE12=Conway Twitty - It's Only Make Believe
TTITLE13=Ike and Tina Turner - Something
TTITLE14=George Jones - A Good Year for the Roses
TTITLE15=Mike Bloomfield - Women Lovin' Each Other
TTITLE16=Joe Dolan - Make Me an Island
TTITLE17=Rod Stewart - So Much to Say
TTITLE18=Fleetwood Mac - Man of the World
TTITLE19=Chris Farlowe - Out of Time
EXTD=
EXTT0=
EXTT1=
EXTT2=
EXTT3=
EXTT4=
EXTT5=
EXTT6=
EXTT7=
EXTT8=
EXTT9=
EXTT10=
EXTT11=
EXTT12=
EXTT13=
EXTT14=
EXTT15=
EXTT16=
EXTT17=
EXTT18=
EXTT19=
PLAYORDER=
